<?xml version="1.0" encoding="utf-8"?>
<!-- Generator: Adobe Illustrator 24.0.3, SVG Export Plug-In . SVG Version: 6.00 Build 0)  -->
<svg version="1.1" id="Capa_1" xmlns="http://www.w3.org/2000/svg" xmlns:xlink="http://www.w3.org/1999/xlink" x="0px" y="0px"
	 width="300px" height="184.498px" viewBox="0 0 300 184.498" style="enable-background:new 0 0 300 184.498;" xml:space="preserve"
	>
<style type="text/css">
	.st0{fill:#B3B3B3;}
	.st1{fill:#CCCCCC;}
	.st2{fill:#808080;}
	.st3{fill:#FFFFFF;}
	.st4{opacity:0.57;}
	.st5{fill:#999999;}
	.st6{fill:none;stroke:#CCCCCC;stroke-width:3.0138;stroke-linecap:round;stroke-linejoin:round;stroke-miterlimit:10;}
	.st7{fill:#ED1C24;}
	.st8{fill:#1A1A1A;}
	.st9{fill:#333333;}
	.st10{fill:#F89A6E;}
	.st11{fill:#C1272D;}
	.st12{fill:#E88057;}
	.st13{clip-path:url(#XMLID_2_);}
	.st14{fill:#FDD63B;}
	.st15{fill:#F2A62F;}
	.st16{clip-path:url(#XMLID_3_);fill:#243051;}
	.st17{clip-path:url(#XMLID_3_);fill:#1A1A1A;}
	.st18{fill:#F97D7D;}
	.st19{fill:#666666;}
	.st20{clip-path:url(#XMLID_4_);fill:#FAFAFA;}
	.st21{clip-path:url(#XMLID_5_);fill:#FFFFFF;}
</style>
<g>
	<g>
		<g>
			<defs>
				<path id="SVGID_1_" d="M244.924,175.933c0,0,43.548-19.367,42.535-58.44c-1.013-39.073-42.285-57.243-70.304-33.12
					c-28.019,24.123-46.153,3.894-60.669-16.492c-14.516-20.386-46.899-46.114-89.385-34.226
					C22.594,46.11,8.898,91.183,13.307,121.26c3.167,21.604,14.748,39.921,30.529,53.996c0.513,0.458,1.039,0.91,1.577,1.356
					L244.924,175.933z"/>
			</defs>
			<use xlink:href="#SVGID_1_"  style="overflow:visible;fill:#F2F2F2;"/>
			<clipPath id="SVGID_2_">
				<use xlink:href="#SVGID_1_"  style="overflow:visible;"/>
			</clipPath>
		</g>
	</g>
	<g>
		<g>
			<rect x="126.52" y="163.025" class="st0" width="36.402" height="8.907"/>
			<path class="st1" d="M169.797,176.579h-50.15c-1.283,0-2.324-1.04-2.324-2.324l0,0c0-1.283,1.04-2.324,2.324-2.324h50.15
				c1.283,0,2.324,1.04,2.324,2.324l0,0C172.12,175.539,171.08,176.579,169.797,176.579z"/>
		</g>
		<g>
			<path class="st1" d="M226.623,60.521c0-2.901-2.351-5.252-5.252-5.252H68.072c-2.9,0-5.252,2.351-5.252,5.252v88.731h163.802
				V60.521z"/>
			<rect x="69.849" y="62.782" class="st2" width="149.745" height="79.616"/>
			<path class="st3" d="M68.072,163.936h153.299c2.9,0,5.252-2.351,5.252-5.252v-9.432H62.821v9.432
				C62.821,161.585,65.172,163.936,68.072,163.936z"/>
			<path class="st1" d="M147.835,156.594c0,1.72-1.394,3.113-3.113,3.113c-1.719,0-3.113-1.394-3.113-3.113
				c0-1.719,1.394-3.113,3.113-3.113C146.441,153.481,147.835,154.875,147.835,156.594z"/>
		</g>
	</g>
	<g class="st4">
		<polygon class="st5" points="111.433,62.782 77.247,142.408 89.345,142.408 123.906,62.782 		"/>
		<polygon class="st5" points="198.648,62.782 164.462,142.408 176.56,142.408 211.121,62.782 		"/>
		<polygon class="st5" points="139.333,62.782 105.146,142.408 140.955,142.408 175.516,62.782 		"/>
	</g>
	<g>
		<g>
			<rect x="80.514" y="79.403" class="st3" width="63.553" height="45.017"/>
			<rect x="80.514" y="79.403" class="st6" width="63.553" height="45.017"/>
		</g>
	</g>
	<g>
		<g>
			<rect x="151.352" y="82.207" class="st0" width="58.087" height="1.182"/>
		</g>
		<g>
			<rect x="151.352" y="95.791" class="st0" width="35.716" height="1.182"/>
		</g>
		<g>
			<rect x="151.352" y="88.929" class="st0" width="10.243" height="1.182"/>
		</g>
	</g>
	<g>
		<g>
			<rect x="151.352" y="104.619" class="st0" width="58.087" height="1.182"/>
		</g>
		<g>
			<rect x="151.352" y="118.203" class="st0" width="58.087" height="1.182"/>
		</g>
		<g>
			<rect x="151.352" y="111.341" class="st0" width="34.272" height="1.182"/>
		</g>
	</g>
	
		<ellipse transform="matrix(0.1785 -0.9839 0.9839 0.1785 -8.8006 192.7533)" class="st7" cx="111.031" cy="101.647" rx="13.961" ry="13.962"/>
	<g>
		<path class="st3" d="M117.67,103.147h-13.717c-0.829,0-1.5-0.671-1.5-1.5s0.671-1.5,1.5-1.5h13.717c0.829,0,1.5,0.671,1.5,1.5
			S118.499,103.147,117.67,103.147z"/>
	</g>
	<g>
		<g>
			<g>
				<polygon class="st8" points="236.413,128.465 239.43,172.841 244.193,172.829 245.182,128.444 				"/>
				<path d="M235.477,176.476h8.69v-4.029h-4.661C237.281,172.447,235.477,174.251,235.477,176.476L235.477,176.476z"/>
			</g>
			<g>
				<path d="M245.762,176.476h9.061l-0.371-4.029h-4.661C247.566,172.447,245.762,174.251,245.762,176.476L245.762,176.476z"/>
				<polygon class="st9" points="251.416,128.491 254.452,172.447 249.79,172.593 242.004,128.491 				"/>
			</g>
		</g>
		<g>
			<g>
				<path class="st7" d="M243.283,105.642l12.37,11.043c1.026,0.916,2.566,0.95,3.631,0.08l0,0c1.214-0.992,1.376-2.788,0.359-3.98
					c0,0-5.975-8.016-9.323-10.68L243.283,105.642z"/>
				<g>
					<path class="st10" d="M262.378,132.522c0,1.641-1.33,2.972-2.972,2.972c-1.641,0-2.972-1.33-2.972-2.972
						c0-1.641,1.331-2.972,2.972-2.972C261.048,129.55,262.378,130.881,262.378,132.522z"/>
					<path class="st7" d="M255.578,115.439l1.631,14.782h4.241l-0.965-15.264c-0.103-1.442-1.418-2.486-2.845-2.26l0,0
						C256.326,112.905,255.413,114.118,255.578,115.439z"/>
				</g>
			</g>
			<g>
				<path class="st7" d="M242.011,100.03c0,0-6.067,0.191-6.391,6.261c-0.326,6.105,0.708,22.2,0.708,22.2h15.087l0.382-19.713
					c0.942-5.268-1.727-8.618-7.138-8.821C243.848,99.928,242.967,99.949,242.011,100.03z"/>
				<polygon class="st11" points="251.713,113.167 249.116,110.849 251.62,117.974 				"/>
			</g>
			<g>
				<g>
					<path class="st10" d="M221.468,94.804c0,1.641-1.331,2.972-2.972,2.972c-1.641,0-2.972-1.331-2.972-2.972
						c0-1.641,1.33-2.972,2.972-2.972C220.137,91.832,221.468,93.163,221.468,94.804z"/>
					<path class="st7" d="M227.866,110.945l-6.398-14.532l-4.08,1.288l5.769,14.708c0.392,1.391,1.891,2.148,3.243,1.639l0,0
						C227.646,113.577,228.294,112.205,227.866,110.945z"/>
				</g>
				<g>
					<path class="st7" d="M239.655,100.562c-7.995,3.32-15.197,8.42-15.197,8.42c-1.206,0.662-1.751,2.102-1.287,3.396l0,0
						c0.53,1.476,2.169,2.227,3.633,1.666l12.192-5.932L239.655,100.562z"/>
					<polygon class="st11" points="235.557,109.785 235.62,106.292 232.857,111.099 					"/>
				</g>
			</g>
		</g>
		<g>
			<g>
				<path class="st10" d="M240.255,96.583l0.191,4.077c0.041,0.887,0.598,1.669,1.424,1.996l0,0c1.567,0.623,3.24-0.629,3.085-2.308
					l-0.246-4.052L240.255,96.583z"/>
				<path class="st12" d="M240.392,99.495c0,0,3.778,0.518,4.317-3.199c0.539-3.717-3.595-2.18-3.595-2.18l-0.831,3.054
					L240.392,99.495z"/>
				<g>
					<defs>
						<path id="XMLID_13_" d="M237.598,86.934c-2.496,2.691-2.338,6.895,0.352,9.391c2.691,2.496,6.895,2.338,9.391-0.352
							c2.496-2.691,2.338-6.895-0.352-9.392C244.299,84.086,240.095,84.243,237.598,86.934z"/>
					</defs>
					<use xlink:href="#XMLID_13_"  style="overflow:visible;fill:#F89A6E;"/>
					<clipPath id="XMLID_2_">
						<use xlink:href="#XMLID_13_"  style="overflow:visible;"/>
					</clipPath>
					<path class="st13" d="M244.416,93.454c0,0-2.623,4.749,1.067,6.056c3.69,1.306,4.75-8.963,4.75-8.963l-3.993-7.826
						l-9.735-0.675l-0.544,3.371c0,0,0.929,3.282,9.094,6.371L244.416,93.454z"/>
					<polygon class="st13" points="242.428,89.72 243.58,93.592 246.514,91.878 					"/>
				</g>
				<path class="st10" d="M243.771,92.128c-0.668,0.72-0.625,1.844,0.094,2.512c0.72,0.667,1.844,0.625,2.512-0.094
					c0.668-0.72,0.625-1.844-0.094-2.512C245.564,91.366,244.439,91.408,243.771,92.128z"/>
			</g>
			<g>
				<path class="st14" d="M235.676,89.311c0,0-0.326-4.754,3.673-7.231c3.298-2.042,7.75-0.927,9.574,2.497
					c0.857,1.608,1.343,3.182,0.775,6.293L235.676,89.311z"/>
				<path class="st15" d="M249.5,91.56c-0.025,0-0.052-0.001-0.078-0.004l-15.95-1.713c-0.38-0.043-0.653-0.385-0.61-0.765
					c0.043-0.379,0.379-0.647,0.765-0.61l15.95,1.713c0.38,0.043,0.653,0.385,0.61,0.765C250.147,91.299,249.847,91.56,249.5,91.56z
					"/>
			</g>
		</g>
	</g>
	<g>
		
			<ellipse transform="matrix(0.229 -0.9734 0.9734 0.229 150.4118 250.2347)" class="st7" cx="233.172" cy="30.167" rx="12.421" ry="12.421"/>
		<g>
			<path class="st3" d="M234.991,35.555c0,2.398-3.638,2.398-3.638,0C231.352,33.136,234.991,33.136,234.991,35.555z
				 M234.774,23.315l-0.083,8.963h-3.06c0-3.39-0.062-5.552-0.062-8.963H234.774z"/>
		</g>
	</g>
	<g>
		<g>
			<g>
				<path class="st10" d="M72.373,23.934l2.863,2.91c0.623,0.634,1.559,0.844,2.393,0.537l0,0c1.583-0.582,1.994-2.63,0.758-3.778
					l-2.887-2.854L72.373,23.934z"/>
				<path class="st12" d="M74.418,26.012c0,0,1.79-3.689,1.082-5.263c-1.54-3.425-4.132,0.775-4.132,0.775l1.418,2.829
					L74.418,26.012z"/>
			</g>
			<g>
				<g>
					<defs>
						<path id="XMLID_17_" d="M63.957,18.519c-0.064,3.67,2.858,6.697,6.528,6.761c3.67,0.064,6.697-2.859,6.761-6.528
							c0.064-3.67-2.859-6.697-6.528-6.761C67.048,11.926,64.021,14.849,63.957,18.519z"/>
					</defs>
					<use xlink:href="#XMLID_17_"  style="overflow:visible;fill:#F89A6E;"/>
					<clipPath id="XMLID_3_">
						<use xlink:href="#XMLID_17_"  style="overflow:visible;"/>
					</clipPath>
					<path class="st16" d="M73.385,18.827c0,0,1.215,5.288,4.835,3.799c3.62-1.489-2.442-9.846-2.442-9.846l-8.195-3.166
						l-7.702,5.992l0.857,5.19c0,0,2.748-1.957,10.89-5.103L73.385,18.827z"/>
					<polygon class="st17" points="69.413,17.372 72.854,19.488 73.897,16.254 					"/>
				</g>
			</g>
			<path class="st8" d="M73.766,20.078c0,0,5.733,15.62,12.869,8.493c6.33-6.321-3.242-10.164-5.834-10.841
				c-1.983-0.518-2.742-1.195-5.243-3.518l-4.962,0.713L73.766,20.078z"/>
			<path class="st10" d="M72.02,18.27c-0.017,0.981,0.765,1.791,1.746,1.808c0.981,0.017,1.791-0.764,1.808-1.746
				c0.017-0.981-0.765-1.791-1.746-1.808C72.847,16.506,72.038,17.288,72.02,18.27z"/>
			<g>
				<path class="st14" d="M63.302,19.544c0,0-2.62-3.981-0.353-8.102c1.869-3.399,6.295-4.615,9.565-2.529
					c1.536,0.98,2.733,2.112,3.767,5.1L63.302,19.544z"/>
				<path class="st15" d="M76.448,14.71c-0.022,0.013-0.046,0.025-0.07,0.035l-14.734,6.344c-0.352,0.149-0.758-0.015-0.907-0.366
					c-0.149-0.351,0.012-0.75,0.366-0.907l14.734-6.344c0.352-0.149,0.758,0.015,0.907,0.366
					C76.883,14.165,76.75,14.539,76.448,14.71z"/>
			</g>
		</g>
		<g>
			<g>
				<g>
					<path class="st9" d="M63.023,56.684L48.345,71.736l-3.753-1.661l12.704-18.019c1.245-2.064,4.186-2.204,5.621-0.268l0,0
						C63.764,52.932,63.806,55.496,63.023,56.684z"/>
				</g>
				<path d="M38.931,69.995l7.421,5.2l2.008-3.512l-3.817-2.675C42.72,67.731,40.207,68.173,38.931,69.995L38.931,69.995z"/>
			</g>
			<g>
				<path class="st9" d="M73.173,47.711L58.32,50.355l3.061,5.796h19.924c0,0,5.99-0.141,3.225-6.707L73.173,47.711z"/>
				<g>
					<path class="st9" d="M63.804,52.246l7.072,23.399l-3.987,2.287L55.706,55.33c-1.14-2.123,0.24-4.725,2.637-4.971l0,0
						C59.759,50.213,63.182,50.967,63.804,52.246z"/>
				</g>
				<path d="M65.063,83.259l7.411-3.901l-1.598-3.712l-4.124,2.171C64.782,78.853,64.026,81.29,65.063,83.259L65.063,83.259z"/>
			</g>
		</g>
		<g>
			<g>
				<g>
					<path class="st7" d="M72.321,30.095c0,0,0.599-2.623,1.36-3.432c0.541-0.576,2.492-2.414,3.563-2.809
						c0.318-0.117,0.67-0.08,0.96,0.097c1.282,0.784,4.805,3.333,6.532,8.525c1.664,5,2.02,19.23,2.02,19.23
						c-4.73,3.073-13.583-3.994-13.583-3.994C73.4,38.845,71.21,38.395,72.321,30.095z"/>
				</g>
			</g>
			<g>
				<path class="st11" d="M71.367,48.033l6.975,0.319c2.369,0.137,3.42-1.637,3.533-3.128l0.31-12.033L71.367,48.033z"/>
				<g>
					<path class="st18" d="M65.089,46.324l-4.126-1.475c-0.334-0.12-0.707-0.056-0.983,0.169l-1.836,1.495
						c-0.539,0.439-0.418,1.293,0.222,1.565l0,0c0.326,0.139,0.703,0.078,0.97-0.155l0.881-0.772c0,0,3.022,1.729,4.452,1.255
						L65.089,46.324z"/>
					<g>
						<g>
							<path class="st7" d="M75.604,27.999l-0.722,13.509l-10.987,2.853l0.455,4.113l13.426-1.404
								c0.964-0.064,1.85-0.506,2.479-1.208c0.348-0.389,0.531-0.898,0.593-1.416l1.667-14.011L75.604,27.999z"/>
						</g>
					</g>
				</g>
				<g>
					<path class="st19" d="M57.126,51.707l15.588-2.728c0.478-0.084,0.798-0.539,0.714-1.017l0,0
						c-0.083-0.478-0.539-0.798-1.017-0.714l-15.588,2.728c-0.478,0.084-0.798,0.539-0.714,1.017l0,0
						C56.193,51.471,56.648,51.791,57.126,51.707z"/>
					<path class="st19" d="M57.241,50.87c-0.091,0-0.182-0.038-0.247-0.112L47.61,40.124c-0.12-0.136-0.107-0.344,0.029-0.465
						c0.136-0.121,0.344-0.108,0.465,0.029l9.384,10.634c0.12,0.136,0.107,0.344-0.029,0.464
						C57.396,50.843,57.318,50.87,57.241,50.87z"/>
				</g>
			</g>
		</g>
		<path class="st8" d="M75.477,23.703c0,0,4.445,10.69,10.524,5.362c6.079-5.328-6.63-8.4-6.63-8.4L75.477,23.703z"/>
	</g>
	<g>
		<g>
			<defs>
				<path id="XMLID_12_" d="M196.597,174.712l7.931-20.498c0.378-0.977,1.761-0.977,2.139,0l7.932,20.498H196.597z"/>
			</defs>
			<use xlink:href="#XMLID_12_"  style="overflow:visible;fill:#F15A24;"/>
			<clipPath id="XMLID_4_">
				<use xlink:href="#XMLID_12_"  style="overflow:visible;"/>
			</clipPath>
			<rect x="198.435" y="158.621" class="st20" width="14.082" height="3.945"/>
			<rect x="197.666" y="166.076" class="st20" width="15.927" height="3.944"/>
		</g>
		<path class="st7" d="M215.838,176.44h-20.389c-0.788,0-1.427-0.639-1.427-1.427l0,0c0-0.788,0.639-1.427,1.427-1.427h20.389
			c0.788,0,1.427,0.639,1.427,1.427l0,0C217.265,175.801,216.626,176.44,215.838,176.44z"/>
	</g>
	<rect x="40.592" y="151.093" class="st5" width="6.2" height="17.53"/>
	<rect x="73.285" y="151.093" class="st5" width="6.2" height="17.53"/>
	<path class="st2" d="M82.91,176.484H36.809c-1.495,0-2.706-1.212-2.706-2.707v-3.429c0-1.495,1.212-2.707,2.706-2.707H82.91
		c1.495,0,2.706,1.212,2.706,2.707v3.429C85.616,175.273,84.405,176.484,82.91,176.484z"/>
	<g>
		<defs>
			<path id="XMLID_7_" d="M82.058,152.514h-43.83c-2.279,0-4.127-1.847-4.127-4.127v-7.556c0-2.279,1.848-4.127,4.127-4.127h43.83
				c2.279,0,4.127,1.848,4.127,4.127v7.556C86.185,150.667,84.337,152.514,82.058,152.514z"/>
		</defs>
		<use xlink:href="#XMLID_7_"  style="overflow:visible;fill:#F15A24;"/>
		<clipPath id="XMLID_5_">
			<use xlink:href="#XMLID_7_"  style="overflow:visible;"/>
		</clipPath>
		<polygon class="st21" points="33.45,158.061 24.064,158.061 45.935,133.797 55.321,133.797 		"/>
		<polygon class="st21" points="71.576,158.061 62.189,158.061 84.061,133.797 93.447,133.797 		"/>
		<polygon class="st21" points="52.121,158.061 42.735,158.061 64.606,133.797 73.993,133.797 		"/>
	</g>
</g>
</svg>
